Coordinates
version=1
nRows=26
nColumns=24
inDegrees=yes

Units are S.I. units (second, meters, Newtons, ...)
Angles are in degrees.

endheader
time	pelvis_tilt	pelvis_list	pelvis_rotation	pelvis_tx	pelvis_ty	pelvis_tz	hip_flexion_r	hip_adduction_r	hip_rotation_r	knee_angle_r	ankle_angle_r	subtalar_angle_r	mtp_angle_r	hip_flexion_l	hip_adduction_l	hip_rotation_l	knee_angle_l	ankle_angle_l	subtalar_angle_l	mtp_angle_l	lumbar_extension	lumbar_bending	lumbar_rotation
      4.06500000	    -10.19737642	      3.54854369	    -12.10314978	     -2.25426932	     -0.03035763	      0.49436624	     -6.73014212	     -1.82709915	      6.86394909	    -11.03668655	      5.17710934	      6.26479615	      7.68620778	     31.55180326	     -2.32816677	     -2.02351486	     -3.26023493	     -7.37804534	      2.32084061	     14.02769914	      6.00478221	     -3.49788516	      7.83449685
      4.07000000	    -10.21193264	      3.66121474	    -12.20320843	     -2.24679715	     -0.03106225	      0.49404161	     -6.84186125	     -2.09883091	      6.81749486	    -11.64286258	      4.90771295	      6.64390374	      8.12311034	     31.60135528	     -2.16543128	     -2.05449629	     -3.81666284	     -7.28873630	      2.56574538	     14.07349475	      6.15076870	     -3.60576810	      7.77146675
      4.07500000	    -10.22590214	      3.75040710	    -12.30862624	     -2.23925589	     -0.03176831	      0.49370034	     -6.94020421	     -2.34661364	      6.79978402	    -12.28245483	      4.56863485	      6.99182645	      8.54888695	     31.65697295	     -2.01637259	     -2.07887373	     -4.50028322	     -7.23609269	      2.72265125	     14.13627445	      6.29652464	     -3.68776344	      7.74372058
      4.08000000	    -10.25543486	      3.86545593	    -12.38478913	     -2.23156612	     -0.03250394	      0.49332704	     -7.01155253	     -2.61713663	      6.76256001	    -12.94497441	      4.17065160	      7.31049348	      8.98330830	     31.73622869	     -1.82109656	     -2.13964072	     -5.27568784	     -7.26257622	      2.82580497	     14.21989197	      6.48109161	     -3.79911098	      7.71593570
      4.08500000	    -10.30872849	      3.97794040	    -12.44405606	     -2.22380199	     -0.03327731	      0.49289211	     -7.03820036	     -2.88817881	      6.70022027	    -13.63547285	      3.75335417	      7.70314519	      9.58240472	     31.84871719	     -1.61939912	     -2.21417376	     -6.13186420	     -7.36133940	      2.92426154	     14.33432064	      6.69431598	     -3.90210472	      7.75873073
      4.09000000	    -10.36078578	      4.10257886	    -12.48346591	     -2.21598369	     -0.03402597	      0.49243782	     -7.03476007	     -3.16462736	      6.63605837	    -14.38196573	      3.24532154	      8.02270818	     10.13193900	     31.95592617	     -1.39252785	     -2.33857826	     -7.00960794	     -7.62402252	      2.95340979	     14.44489164	      6.91096752	     -4.02334400	      7.76124453
      4.09500000	    -10.42545758	      4.23774878	    -12.51819658	     -2.20813874	     -0.03475822	      0.49193115	     -6.97524252	     -3.45461892	      6.53695679	    -15.18569572	      2.68063798	      8.37519854	     10.75104791	     32.07326079	     -1.15625222	     -2.50759329	     -7.88966328	     -8.04198516	      2.93984966	     14.56502529	      7.14114600	     -4.14774207	      7.78542833
      4.10000000	    -10.49531032	      4.38965017	    -12.51652897	     -2.20026733	     -0.03544880	      0.49140798	     -6.87877254	     -3.75458485	      6.41157401	    -16.03563124	      2.03285478	      8.71608565	     11.37812046	     32.19744464	     -0.89376252	     -2.71203237	     -8.75394369	     -8.62117515	      2.89191758	     14.66680067	      7.37865990	     -4.30764895	      7.81170554
      4.10500000	    -10.58057439	      4.56858383	    -12.50900841	     -2.19243569	     -0.03608935	      0.49082689	     -6.69856310	     -4.08456866	      6.24190571	    -16.96548610	      1.31892037	      9.07757450	     12.13736273	     32.33797049	     -0.61252163	     -2.93078775	     -9.58018612	     -9.36226493	      2.78770257	     14.74765109	      7.62686324	     -4.48454570	      7.83668402
      4.11000000	    -10.66942098	      4.72010110	    -12.47881081	     -2.18471208	     -0.03664039	      0.49016507	     -6.46283122	     -4.38776697	      6.03824214	    -17.94613731	      0.46220932	      9.43441053	     13.15437114	     32.48380279	     -0.34788521	     -3.05540479	    -10.37354924	    -10.25206810	      2.52865240	     14.81470198	      7.84604344	     -4.63768920	      7.84549193
      4.11500000	    -10.74938092	      4.94509946	    -12.42271041	     -2.17692550	     -0.03706997	      0.48949809	     -6.19438502	     -4.76313740	      5.82960124	    -18.96962321	     -0.51112632	      9.73237422	     14.01594057	     32.63643522	     -0.00699313	     -3.22720465	    -11.16107381	    -11.15550861	      2.28787375	     14.72869479	      8.07869136	     -4.87119131	      7.87882757
      4.12000000	    -10.83634770	      5.18813603	    -12.34258813	     -2.16917818	     -0.03740764	      0.48880597	     -5.86110247	     -5.15284380	      5.59966044	    -20.05551393	     -1.60904985	     10.01431497	     14.95337651	     32.81800596	      0.36166064	     -3.31343836	    -11.97767027	    -12.01624845	      1.95695176	     14.46133339	      8.31020875	     -5.13375688	      7.90980848
      4.12500000	    -10.91578318	      5.43952486	    -12.25524614	     -2.16145757	     -0.03764320	      0.48808293	     -5.47794794	     -5.54934712	      5.37442940	    -21.20129609	     -2.86659986	     10.22928839	     15.93979162	     33.01412861	      0.75290603	     -3.29846570	    -12.85202796	    -12.74283034	      1.52387746	     13.96878621	      8.52687181	     -5.40392609	      7.94249004
      4.13000000	    -10.99108735	      5.68085998	    -12.13956590	     -2.15378150	     -0.03779263	      0.48735936	     -5.05984044	     -5.92294794	      5.17313237	    -22.37821881	     -4.29505299	     10.35281920	     17.04922625	     33.23643570	      1.16113756	     -3.14935554	    -13.81974861	    -13.28692791	      1.00322705	     13.18648859	      8.72152194	     -5.67913800	      7.98671776
      4.13500000	    -11.05145815	      5.91151700	    -12.03836933	     -2.14612516	     -0.03786076	      0.48665298	     -4.59987592	     -6.27725220	      5.02241822	    -23.61598972	     -5.88567905	     10.38187967	     18.14239612	     33.45901687	      1.57034985	     -2.92516843	    -14.87148002	    -13.57951345	      0.42883587	     12.16975460	      8.89058912	     -5.93867997	      8.05637751
      4.14000000	    -11.09336229	      6.11195116	    -11.93940906	     -2.13848187	     -0.03788662	      0.48594802	     -4.11111954	     -6.58833143	      4.92024930	    -24.90639826	     -7.64769745	     10.28867049	     19.27420110	     33.67318375	      1.97271651	     -2.63672622	    -16.00874605	    -13.55676469	     -0.16424135	     10.95807512	      9.02584378	     -6.16973557	      8.12281047
      4.14500000	    -11.10698459	      6.28676215	    -11.83002241	     -2.13093464	     -0.03788238	      0.48528227	     -3.59573183	     -6.85295065	      4.85598824	    -26.26057126	     -9.53730735	     10.03806146	     20.50524776	     33.87738830	      2.36587215	     -2.36234669	    -17.23313379	    -13.21417147	     -0.60863829	      9.59473948	      9.10310919	     -6.39012467	      8.16655698
      4.15000000	    -11.11645449	      6.43146603	    -11.78176180	     -2.12327658	     -0.03780766	      0.48471293	     -3.04705806	     -7.05998633	      4.95700177	    -27.65905355	    -11.59429904	      9.74751382	     21.34511106	     34.00122448	      2.72210567	     -2.02312069	    -18.37506386	    -12.78374680	     -1.22475293	      8.43308516	      9.19508389	     -6.56218826	      8.33147656
      4.15500000	    -11.11064869	      6.55777829	    -11.71893519	     -2.11576575	     -0.03774919	      0.48417204	     -2.43975763	     -7.22034739	      5.06353268	    -29.15493420	    -13.72367898	      9.27948287	     22.24462531	     34.10465614	      3.06911328	     -1.72488802	    -19.53001437	    -12.13983758	     -1.65663340	      7.31142334	      9.23827145	     -6.72629661	      8.45310267
      4.16000000	    -11.07874181	      6.67545741	    -11.67136529	     -2.10834780	     -0.03768028	      0.48370649	     -1.78946748	     -7.34758970	      5.20538643	    -30.74235706	    -15.89495943	      8.69654481	     23.02051387	     34.14205459	      3.39764009	     -1.49792543	    -20.62309534	    -11.35314713	     -1.93762961	      6.40603111	      9.23716976	     -6.88775373	      8.58217320
      4.16500000	    -11.04221001	      6.79984413	    -11.62046004	     -2.10111128	     -0.03764892	      0.48328149	     -1.05290262	     -7.45653337	      5.33605557	    -32.45612165	    -18.03136975	      7.98580374	     23.71719582	     34.14397871	      3.72260271	     -1.31957630	    -21.64762655	    -10.46201289	     -2.03296885	      5.69954193	      9.20351099	     -7.06267482	      8.71314405
      4.17000000	    -10.99727209	      6.95411403	    -11.57202600	     -2.09389131	     -0.03757744	      0.48291833	     -0.26057039	     -7.57502330	      5.46786895	    -34.25419767	    -20.17811976	      7.19856343	     24.08687739	     34.05976773	      4.06880768	     -1.19017796	    -22.50424809	     -9.62909982	     -2.12366082	      5.31077000	      9.17157081	     -7.26930105	      8.84970162
      4.17500000	    -10.94303260	      7.14563596	    -11.52431345	     -2.08673744	     -0.03748012	      0.48256959	      0.59836254	     -7.72170457	      5.56222887	    -36.14676761	    -22.29173678	      6.29854693	     24.17783723	     33.89863242	      4.44472714	     -1.13954547	    -23.19521845	     -8.87192087	     -2.23541944	      5.17030206	      9.13258357	     -7.50913359	      8.95443376
      4.18000000	    -10.83205779	      7.50016441	    -11.42847629	     -2.07961258	     -0.03741627	      0.48221365	      1.49633740	     -8.07125111	      5.48244127	    -38.17788048	    -24.13203772	      5.37391874	     24.04039378	     33.61883093	      5.00921463	     -1.10037434	    -23.68839480	     -8.20342061	     -2.33795863	      5.26862110	      9.06253702	     -7.94392911	      9.01584898
      4.18500000	    -10.89736644	      7.62163816	    -11.38496158	     -2.07295348	     -0.03740982	      0.48194756	      2.62794422	     -8.06123794	      5.58017111	    -40.22122023	    -26.24853394	      3.88704697	     23.92629553	     33.51264925	      5.25295458	     -1.09763419	    -24.22369494	     -7.38277163	     -2.15497915	      5.31132686	      9.07172123	     -8.09070546	      9.14239039
      4.19000000	    -10.86502644	      7.94600435	    -11.30339580	     -2.06616292	     -0.03736740	      0.48160019	      3.73002954	     -8.33701908	      5.48516209	    -42.34116327	    -28.05470355	      2.40898696	     23.51852022	     33.23386893	      5.74233969	     -1.16904657	    -24.52927781	     -6.72306537	     -2.12300185	      5.44320493	      9.04201580	     -8.46053827	      9.18465065
